<svg width="116" height="116" viewBox="0 0 116 116" fill="none" xmlns="http://www.w3.org/2000/svg">
<g clip-path="url(#clip0_281_646)">
<path d="M73.3812 78.3113C75.6795 79.5703 77.5529 81.4826 78.7645 83.8063C79.976 86.13 80.4713 88.7608 80.1877 91.3661C79.904 93.9713 78.8542 96.4339 77.171 98.4424C75.4878 100.451 73.2468 101.915 70.7313 102.65C68.2159 103.385 65.539 103.358 63.0392 102.571C60.5394 101.785 58.3289 100.275 56.6873 98.2321C55.0457 96.1894 54.0467 93.7057 53.8166 91.0952C53.5866 88.4847 54.1357 85.8647 55.3948 83.5663L60.043 86.1126C59.2876 87.4916 58.9581 89.0636 59.0962 90.6299C59.2342 92.1962 59.8336 93.6864 60.8186 94.912C61.8035 96.1377 63.1298 97.0437 64.6297 97.5156C66.1296 97.9874 67.7357 98.0039 69.245 97.563C70.7543 97.122 72.0989 96.2434 73.1088 95.0383C74.1187 93.8331 74.7486 92.3556 74.9188 90.7924C75.089 89.2293 74.7918 87.6508 74.0649 86.2566C73.338 84.8623 72.2139 83.715 70.8349 82.9595L73.3812 78.3113ZM31.5466 55.3948L29.0003 60.0431C27.6213 59.2877 26.0492 58.9581 24.483 59.0962C22.9167 59.2342 21.4265 59.8336 20.2008 60.8186C18.9752 61.8036 18.0692 63.1298 17.5973 64.6297C17.1255 66.1296 17.109 67.7358 17.5499 69.245C17.9909 70.7543 18.8695 72.0989 20.0746 73.1088C21.2798 74.1188 22.7573 74.7486 24.3205 74.9188C25.8836 75.089 27.4621 74.7918 28.8563 74.0649C30.2506 73.338 31.3979 72.2139 32.1533 70.8349L36.8016 73.3812C35.5426 75.6796 33.6303 77.553 31.3066 78.7645C28.9829 79.9761 26.352 80.4713 23.7468 80.1877C21.1416 79.9041 18.679 78.8543 16.6704 77.171C14.6619 75.4878 13.1975 73.2468 12.4626 70.7314C11.7277 68.2159 11.7552 65.539 12.5416 63.0392C13.328 60.5394 14.8381 58.3289 16.8808 56.6873C18.9235 55.0457 21.4072 54.0467 24.0177 53.8166C26.6281 53.5866 29.2482 54.1358 31.5466 55.3948ZM96.2977 36.4767C99.3797 38.165 101.665 41.0084 102.65 44.3815C103.636 47.7546 103.241 51.3811 101.553 54.4631C99.8644 57.5451 97.0209 59.8302 93.6478 60.8157C90.2747 61.8012 86.6483 61.4064 83.5663 59.7181L86.1125 55.0698C87.4916 55.8252 89.0636 56.1548 90.6299 56.0167C92.1962 55.8787 93.6864 55.2793 94.912 54.2943C96.1377 53.3093 97.0437 51.9831 97.5155 50.4832C97.9874 48.9833 98.0039 47.3771 97.5629 45.8679C97.122 44.3586 96.2434 43.014 95.0382 42.0041C93.8331 40.9941 92.3555 40.3643 90.7924 40.1941C89.2293 40.0239 87.6508 40.3211 86.2565 41.048C84.8623 41.7749 83.7149 42.899 82.9595 44.278L78.3112 41.7317C80.0026 38.6529 82.8461 36.3705 86.2179 35.3854C89.5898 34.4002 93.2148 34.7927 96.2977 36.4767ZM54.4631 13.5602C57.5419 15.2516 59.8242 18.095 60.8094 21.4669C61.7945 24.8388 61.4021 28.4637 59.7181 31.5466L55.0698 29.0003C55.8252 27.6213 56.1547 26.0493 56.0167 24.483C55.8787 22.9167 55.2793 21.4265 54.2943 20.2009C53.3093 18.9752 51.983 18.0692 50.4832 17.5973C48.9833 17.1255 47.3771 17.109 45.8679 17.5499C44.3586 17.9909 43.014 18.8695 42.0041 20.0746C40.9941 21.2798 40.3642 22.7573 40.1941 24.3205C40.0239 25.8836 40.3211 27.4621 41.048 28.8563C41.7749 30.2506 42.899 31.3979 44.278 32.1533L41.7317 36.8016C38.6497 35.1133 36.3646 32.2699 35.3791 28.8968C34.3936 25.5237 34.7884 21.8972 36.4767 18.8152C38.165 15.7332 41.0084 13.4481 44.3815 12.4626C47.7546 11.4771 51.3811 11.8719 54.4631 13.5602Z" fill="#DBDFFF"/>
<path d="M51.5523 46.4549L44.9676 58.4754L24.4379 64.4734C24.0985 64.5662 23.7809 64.7257 23.5038 64.9425C23.2267 65.1594 22.9955 65.4292 22.8238 65.7364C22.652 66.0435 22.5432 66.3817 22.5036 66.7314C22.464 67.081 22.4944 67.4351 22.5931 67.7728C22.6918 68.1106 22.8567 68.4253 23.0784 68.6986C23.3 68.9719 23.5738 69.1984 23.8839 69.3648C24.1939 69.5311 24.534 69.6341 24.8843 69.6676C25.2346 69.7011 25.588 69.6645 25.924 69.56L42.1118 64.8305C41.667 67.0317 41.9376 69.3175 42.8843 71.354C43.8309 73.3905 45.4039 75.0709 47.3735 76.1498C49.343 77.2287 51.606 77.6496 53.8318 77.3509C56.0576 77.0523 58.1296 76.0497 59.7451 74.4898L64.4723 90.6763C64.6694 91.3507 65.1264 91.9193 65.7427 92.2569C66.359 92.5944 67.0841 92.6734 67.7586 92.4765C68.4331 92.2793 69.0016 91.8224 69.3392 91.2061C69.6768 90.5898 69.7558 89.8647 69.5588 89.1901L63.5607 68.6605L70.1454 56.64L90.6751 50.6419C91.3496 50.4447 91.9181 49.9878 92.2557 49.3715C92.5933 48.7552 92.6723 48.0301 92.4753 47.3556C92.2781 46.6811 91.8212 46.1126 91.2049 45.775C90.5886 45.4374 89.8635 45.3584 89.189 45.5553L73.0012 50.2849C73.446 48.0836 73.1754 45.7978 72.2287 43.7614C71.2821 41.7249 69.7091 40.0445 67.7395 38.9655C65.7699 37.8866 63.507 37.4658 61.2812 37.7644C59.0554 38.0631 56.9834 39.0656 55.3679 40.6256L50.6384 24.4378C50.432 23.7743 49.9732 23.2185 49.3609 22.8899C48.7487 22.5614 48.0318 22.4865 47.3649 22.6814C46.6979 22.8763 46.1342 23.3253 45.795 23.9318C45.4559 24.5383 45.3686 25.2537 45.5518 25.9239L51.5523 46.4549ZM58.0008 45.7148C58.6761 44.482 59.8135 43.568 61.1627 43.1738C62.5119 42.7796 63.9625 42.9375 65.1953 43.6128C66.4281 44.2881 67.3422 45.4255 67.7364 46.7748C68.1306 48.124 67.9727 49.5746 67.2973 50.8074L57.1122 69.4005C56.4369 70.6333 55.2995 71.5474 53.9503 71.9416C52.6011 72.3358 51.1505 72.1778 49.9177 71.5025C48.6849 70.8272 47.7708 69.6898 47.3766 68.3406C46.9824 66.9914 47.1403 65.5408 47.8157 64.308L58.0008 45.7148Z" fill="#DBDFFF"/>
</g>
<defs>
<clipPath id="clip0_281_646">
<rect width="84.8001" height="84.8001" fill="white" transform="translate(74.3726 115.113) rotate(-151.287)"/>
</clipPath>
</defs>
</svg>
